<?xml version="1.0" standalone="no"?>
<!DOCTYPE svg PUBLIC "-//W3C//DTD SVG 20010904//EN"
 "http://www.w3.org/TR/2001/REC-SVG-20010904/DTD/svg10.dtd">
<svg version="1.0" xmlns="http://www.w3.org/2000/svg"
 width="500.000000pt" height="500.000000pt" viewBox="0 0 500.000000 500.000000"
 preserveAspectRatio="xMidYMid meet">
<metadata>
Created by potrace 1.11, written by Peter Selinger 2001-2013
</metadata>
<g transform="translate(0.000000,500.000000) scale(0.100000,-0.100000)"
fill="#000000" stroke="none">
<path d="M2397 3186 c-41 -15 -55 -25 -106 -70 -45 -42 -76 -92 -95 -156 -13
-44 -16 -113 -16 -397 l0 -343 45 0 45 0 0 136 0 136 -25 -16 c-38 -25 -44
-19 -7 10 27 22 32 32 32 70 0 43 -1 44 -22 34 l-23 -11 22 18 c17 14 22 32
25 85 2 37 0 64 -4 62 -4 -3 2 11 15 31 48 78 84 119 125 141 36 21 56 24 138
24 150 0 191 -30 272 -197 45 -96 53 -132 18 -81 -15 22 -16 21 -16 -24 0 -29
6 -53 16 -62 14 -15 14 -16 0 -16 -13 0 -16 -11 -16 -51 0 -45 2 -50 15 -39
19 15 19 14 -1 -43 -8 -25 -14 -56 -11 -69 3 -21 5 -19 20 14 9 21 17 53 17
72 0 19 5 38 12 42 8 5 9 -4 5 -32 -4 -21 -7 -46 -7 -55 0 -9 -11 -32 -23 -51
-16 -23 -24 -49 -24 -81 l-1 -47 40 0 39 0 -3 358 c-3 344 -4 359 -26 414 -29
71 -95 146 -158 178 -43 22 -64 25 -164 27 -79 2 -127 -1 -153 -11z m126 -83
c-7 -2 -19 -2 -25 0 -7 3 -2 5 12 5 14 0 19 -2 13 -5z m-84 -18 c-20 -7 -50
-20 -67 -29 -18 -9 -32 -14 -32 -11 0 9 103 55 120 54 8 0 -1 -6 -21 -14z
m290 -16 c18 -11 31 -22 28 -25 -3 -3 -23 6 -44 20 -45 31 -33 35 16 5z m-101
-1 c43 3 85 -20 115 -60 35 -47 50 -78 38 -78 -6 0 -18 14 -27 31 -21 42 -69
87 -100 95 -42 11 -37 -2 15 -35 48 -31 81 -61 67 -61 -4 0 -35 20 -69 44 -34
24 -78 51 -97 60 -33 15 -33 16 -5 9 17 -3 45 -6 63 -5z m-199 -11 c-21 -17
-79 -45 -79 -38 0 8 58 39 74 40 5 1 7 0 5 -2z m136 -37 c13 -6 2 -7 -30 -3
-27 3 -52 7 -54 9 -9 8 65 2 84 -6z m-221 -75 c-20 -19 -39 -34 -41 -31 -4 4
64 66 73 66 3 0 -11 -16 -32 -35z m199 28 c-7 -2 -19 -2 -25 0 -7 3 -2 5 12 5
14 0 19 -2 13 -5z m-74 -12 c-14 -5 -35 -14 -47 -20 -12 -6 -22 -9 -22 -7 0
10 55 35 75 35 16 -1 14 -2 -6 -8z m281 -41 c18 -9 80 -91 80 -104 0 -16 -18
-2 -35 27 -10 17 -32 44 -48 60 -30 28 -29 34 3 17z m-426 -65 c-20 -25 -38
-45 -41 -45 -7 0 15 35 41 63 40 43 41 31 0 -18z m-79 -200 c-10 -19 -22 -35
-26 -35 -4 0 2 18 14 39 12 22 24 37 26 35 3 -3 -3 -20 -14 -39z"/>
</g>
</svg>
